<svg width="200" viewBox="0 0 800 250" xmlns="http://www.w3.org/2000/svg">
<path fill="#3056d3" opacity="1.000000" stroke="transparent" 
	d="
M513.000000,251.000000 
	C343.540222,251.000000 174.580429,250.988449 5.620679,251.079498 
	C2.096187,251.081406 0.879588,250.643173 0.887134,246.622559 
	C1.038189,166.141998 1.036101,85.661018 0.887291,5.180449 
	C0.880273,1.384605 1.899167,0.917849 5.317764,0.918995 
	C269.088287,1.007370 532.858826,1.005908 796.629395,0.932174 
	C799.900452,0.931259 801.131531,1.181603 801.123474,5.127635 
	C800.959045,85.774773 800.968567,166.422363 801.104248,247.069626 
	C801.110229,250.633743 800.206360,251.088882 796.932007,251.085236 
	C702.454773,250.979691 607.977356,251.000000 513.000000,251.000000 
z"/>
<path fill="#fff" opacity="1.000000" stroke="transparent" 
	d="
M58.061676,200.908905 
	C42.516033,186.961166 33.041771,169.705902 27.097780,150.270477 
	C26.073280,146.920593 26.796402,145.260223 30.237715,144.021011 
	C61.713558,132.686752 93.129364,121.185837 124.569908,109.753403 
	C143.871246,102.735046 163.195663,95.780022 182.486786,88.733810 
	C187.966263,86.732391 188.011047,86.569168 184.520645,81.986107 
	C168.105194,60.431828 146.022171,49.731682 119.322868,52.346004 
	C87.978073,55.415192 66.609421,73.038231 56.247692,103.018120 
	C54.534187,107.975861 52.299980,110.741310 47.228561,112.159416 
	C40.709679,113.982277 34.400639,116.605690 28.094746,119.118958 
	C24.952295,120.371399 23.788792,119.810188 24.161293,116.321243 
	C26.874886,90.904884 36.905357,68.779190 55.481091,51.259827 
	C72.577477,35.135681 93.053192,25.710417 116.860229,23.739454 
	C147.757263,21.181520 174.104736,31.113176 196.394394,52.065029 
	C209.483688,64.368729 218.211792,79.578011 223.402344,96.817108 
	C224.710068,101.160393 225.000031,104.063210 219.461411,105.977829 
	C199.146439,113.000412 179.030258,120.596886 158.823471,127.933868 
	C128.984207,138.768326 99.120232,149.534805 69.293518,160.403595 
	C62.985184,162.702332 62.938171,162.925613 67.029770,168.210800 
	C83.117775,188.992004 104.549713,199.430252 130.578705,197.499680 
	C155.089539,195.681686 174.763458,183.901169 187.851059,162.566116 
	C191.439697,156.716003 194.613541,150.466232 195.911758,143.604401 
	C196.389801,141.077774 198.048889,140.368759 199.854446,139.692291 
	C207.757172,136.731445 215.738846,133.978882 223.615707,130.952515 
	C227.170441,129.586761 227.224258,131.642136 226.961517,133.989288 
	C225.227371,149.482040 220.435089,163.869843 212.438141,177.365417 
	C202.395584,194.313187 188.381592,207.061356 171.099426,215.689590 
	C155.706848,223.374420 139.032791,227.094223 121.497513,226.325317 
	C106.158485,225.652725 91.835892,221.666687 78.228271,214.819565 
	C70.984039,211.174377 64.480576,206.401581 58.061676,200.908905 
z"/>
<path fill="#fff" opacity="1.000000" stroke="transparent" 
	d="
M520.019165,116.507523 
	C519.960449,100.851440 527.940369,92.599640 543.397522,90.877144 
	C552.537292,89.858635 560.684082,91.482826 568.014526,96.985832 
	C572.812622,100.587822 574.645142,105.869698 575.846558,111.440796 
	C575.971802,112.021500 575.809692,112.871742 575.441711,113.315575 
	C573.778442,115.321587 564.580139,113.707123 563.958862,111.209846 
	C560.855713,98.738434 541.496399,98.570175 534.262878,105.368172 
	C529.721802,109.635811 531.563660,117.916306 537.574524,121.217934 
	C544.088989,124.796158 551.558960,124.990097 558.492249,127.075691 
	C566.113831,129.368332 573.327332,132.512207 576.026123,140.893311 
	C580.222107,153.924149 574.412231,165.519684 561.462402,169.676422 
	C549.420898,173.541565 537.623596,172.865997 526.756226,165.811722 
	C522.127319,162.807007 519.444519,158.201309 518.183411,152.871826 
	C517.455078,149.794189 518.162720,147.990616 522.085815,147.878189 
	C526.530701,147.750793 529.783630,148.277664 530.863953,153.366501 
	C531.360718,155.706589 533.369324,157.164917 535.568787,158.210587 
	C543.132385,161.806458 550.742493,162.079132 558.640076,159.176102 
	C563.398621,157.426956 565.460510,153.741806 565.789673,149.342407 
	C566.128784,144.809952 563.227112,141.650558 559.216248,139.663574 
	C553.811768,136.986191 547.834839,136.392853 542.079651,134.979477 
	C531.887329,132.476440 522.875610,128.457977 520.019165,116.507523 
z"/>
<path fill="#fff" opacity="1.000000" stroke="transparent" 
	d="
M277.329590,124.973770 
	C287.132935,124.993256 296.467804,125.124016 305.796631,124.942368 
	C309.509766,124.870049 311.209869,125.748871 311.125732,129.921249 
	C311.048523,133.747833 310.046448,135.200806 306.015961,135.085007 
	C296.857819,134.821884 287.684174,135.133255 278.522247,134.946915 
	C275.037506,134.876038 273.805511,136.047241 273.948700,139.530151 
	C274.174347,145.020416 274.135712,150.530502 273.965179,156.024628 
	C273.869263,159.114075 275.107880,160.068283 278.074036,160.033447 
	C287.905029,159.917938 297.741638,160.147720 307.569183,159.931519 
	C311.713684,159.840332 312.981781,161.320129 313.128876,165.422623 
	C313.293365,170.010284 310.897827,170.058395 307.582947,170.036514 
	C294.251434,169.948547 280.918030,169.911453 267.587524,170.057007 
	C264.193604,170.094070 262.920624,169.109665 262.940216,165.551300 
	C263.066803,142.554123 263.059692,119.555649 262.943939,96.558365 
	C262.926697,93.134537 263.943542,91.894249 267.475800,91.936195 
	C281.139282,92.098465 294.807739,92.130798 308.470001,91.923721 
	C312.527985,91.862206 313.034607,93.713242 313.080200,97.077316 
	C313.129211,100.692497 312.013245,102.135345 308.229828,102.060745 
	C298.401276,101.866959 288.562958,102.150009 278.735596,101.928360 
	C274.960693,101.843201 273.741638,103.134384 273.942535,106.815689 
	C274.205597,111.634415 274.027435,116.477974 274.012054,121.310760 
	C274.005707,123.298965 274.219391,125.060928 277.329590,124.973770 
z"/>
<path fill="#fff" opacity="1.000000" stroke="transparent" 
	d="
M679.736450,164.231445 
	C670.751160,152.121429 669.874878,139.340973 675.510315,126.087868 
	C681.133789,112.863213 699.217773,106.250038 711.779297,118.196030 
	C712.120117,118.520096 712.600037,118.697845 713.999023,119.527061 
	C713.999023,111.721138 714.202271,104.520081 713.919800,97.338127 
	C713.760376,93.284248 714.933533,91.869522 719.179077,91.851425 
	C723.640320,91.832405 725.161682,92.994385 725.110840,97.689224 
	C724.871277,119.833916 725.045471,141.982819 724.941528,164.129608 
	C724.930969,166.387360 726.442627,170.212891 721.862793,169.882935 
	C718.519653,169.642090 712.830139,172.761017 714.023499,164.235870 
	C708.068420,169.001846 702.452698,171.852875 695.416626,171.337173 
	C689.321716,170.890488 684.134949,169.028625 679.736450,164.231445 
z"/>
<path fill="#fff" opacity="1.000000" stroke="transparent" 
	d="
M381.111389,167.001831 
	C371.334045,158.934097 369.114227,148.587723 370.502960,136.891144 
	C371.577026,127.844818 375.192719,120.441772 383.106567,115.498619 
	C398.930634,105.614555 420.288177,116.929794 420.995361,135.570557 
	C421.353241,145.005051 421.353302,145.004700 411.629700,145.005478 
	C402.971680,145.006180 394.309113,145.170959 385.657806,144.930557 
	C382.068542,144.830826 381.187805,145.717224 381.900848,149.328827 
	C383.162323,155.718155 386.505310,159.566681 393.648865,161.032272 
	C400.366882,162.410553 405.842468,160.122162 408.744141,155.629562 
	C410.769501,152.493729 412.100861,152.315826 420.426331,153.415146 
	C420.004486,167.810318 398.059540,177.506439 381.111389,167.001831 
z"/>
<path fill="#fff" opacity="1.000000" stroke="transparent" 
	d="
M753.915894,112.614197 
	C768.994324,109.556877 783.623657,120.191147 784.107544,136.477844 
	C784.361206,145.015076 784.747314,145.003525 776.105225,145.004837 
	C766.943970,145.006226 757.778992,145.156250 748.623291,144.931198 
	C745.282166,144.849045 744.676086,146.196304 745.016602,149.026840 
	C745.723450,154.902374 749.893127,159.526199 755.957520,160.981430 
	C762.486511,162.548157 768.982361,160.401520 772.116577,155.641449 
	C773.579529,153.419632 780.315552,151.918335 782.798950,153.208679 
	C784.282349,153.979446 783.752075,155.030838 783.405151,156.159378 
	C781.350769,162.841675 776.496521,167.418503 770.430176,169.607849 
	C761.833984,172.710159 752.905090,172.428070 744.801819,167.232285 
	C734.141602,160.397034 732.576904,149.509689 733.368225,138.431793 
	C734.011353,129.429474 737.219910,120.979759 745.706360,115.802727 
	C748.155396,114.308762 750.814026,113.506569 753.915894,112.614197 
z"/>
<path fill="#fff" opacity="1.000000" stroke="transparent" 
	d="
M469.130615,115.710312 
	C475.168793,120.607025 477.091309,126.829224 477.024933,133.988968 
	C476.927673,144.471771 476.783752,154.962418 477.094116,165.436859 
	C477.229584,170.009415 474.852722,170.086792 471.545105,170.048065 
	C468.347229,170.010620 465.755493,170.226044 465.906311,165.527664 
	C466.226532,155.553574 466.032410,145.561752 465.985748,135.577499 
	C465.948120,127.521683 462.243927,122.401016 455.757050,122.102089 
	C448.228333,121.755150 442.647308,125.287308 440.997467,133.113266 
	C438.881500,143.150238 440.412170,153.304352 440.044434,163.398010 
	C439.811127,169.802856 437.490570,171.561844 431.095703,169.948914 
	C429.031433,169.428253 429.036530,168.072174 429.034882,166.578217 
	C429.016632,149.937561 429.062653,133.296677 428.977631,116.656425 
	C428.962860,113.768127 430.178986,112.750725 432.868225,113.009804 
	C436.137939,113.324806 440.898987,111.233032 440.014221,118.818214 
	C449.406158,111.207558 458.843048,109.631889 469.130615,115.710312 
z"/>
<path fill="#fff" opacity="1.000000" stroke="transparent" 
	d="
M350.323975,136.358322 
	C352.647461,129.574463 354.778564,123.142944 356.958649,116.728096 
	C358.048248,113.522087 365.509766,111.328354 368.134827,113.449402 
	C369.427124,114.493546 368.878387,115.812508 368.416443,117.074081 
	C362.278320,133.837570 356.128754,150.596878 350.021667,167.371658 
	C348.406830,171.807236 344.690826,169.532791 341.885223,169.926666 
	C339.679626,170.236298 337.613007,170.333160 336.483582,167.160400 
	C330.448853,150.207779 324.152893,133.346893 317.794342,116.512032 
	C316.703979,113.625252 317.594788,113.123634 320.246216,112.970749 
	C328.347229,112.503601 328.486145,112.578636 330.989136,120.264404 
	C334.618164,131.407639 338.349213,142.517624 341.996765,153.654892 
	C342.270081,154.489410 342.579956,155.187363 343.832886,155.883804 
	C345.958282,149.437210 348.055054,143.077377 350.323975,136.358322 
z"/>
<path fill="#fff" opacity="1.000000" stroke="transparent" 
	d="
M490.000580,103.172073 
	C489.239899,96.737823 493.589813,98.251595 496.819946,97.983940 
	C500.352142,97.691269 502.255829,98.947357 501.909821,102.741264 
	C501.834625,103.565445 501.905945,104.402908 501.908386,105.234253 
	C501.929199,112.298355 501.915985,112.499222 508.837311,112.949905 
	C513.036499,113.223328 511.822357,116.083679 511.972198,118.320183 
	C512.131348,120.696144 512.239258,122.843674 508.636627,123.033653 
	C501.897522,123.389015 501.890106,123.594360 501.913605,130.449265 
	C501.943787,139.260071 502.044617,148.070816 502.036072,156.881516 
	C502.032959,160.115952 503.446075,162.277222 506.706055,161.890060 
	C512.059387,161.254272 512.475708,164.247253 511.961823,168.171265 
	C511.378754,172.623535 507.558228,171.671494 505.153137,171.404892 
	C493.325348,170.093842 490.000732,166.036392 489.997894,153.884369 
	C489.995911,145.404541 489.830353,136.920059 490.068939,128.446991 
	C490.178436,124.558372 489.336761,122.339653 484.946777,122.945419 
	C482.854248,123.234177 481.680115,122.221596 482.058685,120.101471 
	C482.481079,117.735909 480.467834,113.309273 483.870361,113.392670 
	C491.358093,113.576187 490.037292,108.961601 489.998047,104.634247 
	C489.995026,104.301750 489.998413,103.969193 490.000580,103.172073 
z"/>
<path fill="#fff" opacity="1.000000" stroke="transparent" 
	d="
M589.958130,164.763397 
	C588.315918,161.534744 587.939209,158.481400 587.969666,155.273010 
	C588.056702,146.121384 587.924683,136.967484 588.037292,127.816422 
	C588.075134,124.742836 587.690613,122.481995 583.819153,122.967796 
	C579.549255,123.503609 580.017944,120.506165 579.986572,117.817612 
	C579.955933,115.194107 579.823669,112.546761 583.686829,113.017166 
	C587.387146,113.467743 588.350647,111.551048 588.015381,108.304665 
	C587.896362,107.152252 587.998108,105.976952 588.000732,104.812096 
	C588.017151,97.577927 588.264160,97.438683 595.670044,97.974159 
	C597.915100,98.136475 599.105286,98.801353 598.987854,101.184685 
	C598.922485,102.512146 599.000244,103.846344 599.003174,105.177528 
	C599.019409,112.588913 599.015015,112.812683 606.195129,112.920105 
	C609.948364,112.976265 610.092529,114.955681 610.016357,117.694435 
	C609.941345,120.392128 610.390259,122.945473 606.178772,123.050499 
	C599.003418,123.229431 599.006836,123.463303 599.005127,130.828796 
	C599.003357,138.317169 598.954468,145.806046 599.024048,153.293777 
	C599.085938,159.952835 600.306396,161.375580 606.911316,161.959396 
	C609.339172,162.174011 610.282227,163.205490 609.937805,165.379623 
	C609.621765,167.374390 611.366028,170.076645 607.685547,171.016708 
	C601.114258,172.695084 594.631348,170.677750 589.958130,164.763397 
z"/>
<path fill="#fff" opacity="1.000000" stroke="transparent" 
	d="
M629.982544,151.998596 
	C629.975464,157.159775 629.840942,161.825775 629.997620,166.481979 
	C630.149719,170.999985 626.923645,169.947357 624.485596,169.952606 
	C622.039368,169.957870 618.940308,170.981049 618.970276,166.475372 
	C619.080933,149.827042 619.011841,133.177536 619.017944,116.528473 
	C619.018555,114.805893 619.063660,112.847366 621.479065,113.115211 
	C624.848694,113.488876 629.703247,110.671844 630.384155,117.616394 
	C634.283875,114.093590 638.196106,111.934181 643.125977,111.979683 
	C647.625854,112.021217 646.984375,115.082390 647.028381,117.883430 
	C647.070984,120.596718 647.446411,123.502281 643.181335,122.993729 
	C633.754578,121.869728 629.151062,128.100876 629.911743,137.020493 
	C630.320496,141.813858 629.983215,146.670837 629.982544,151.998596 
z"/>
<path fill="#fff" opacity="1.000000" stroke="transparent" 
	d="
M652.995361,121.098434 
	C653.184326,116.944450 651.443909,112.484604 658.381104,112.809021 
	C662.985046,113.024330 664.164246,114.290512 664.092285,118.736931 
	C663.842163,134.179321 663.824829,149.631180 664.096497,165.072800 
	C664.177551,169.678726 662.105652,170.035156 658.422791,170.107376 
	C654.504456,170.184204 652.825256,169.311356 652.902283,164.931091 
	C653.156250,150.485703 652.996399,136.033051 652.995361,121.098434 
z"/>
<path fill="#fff" opacity="1.000000" stroke="transparent" 
	d="
M652.390259,101.717712 
	C651.181824,94.964973 654.955566,90.524025 659.876526,92.525932 
	C662.494812,93.591057 665.020508,95.152084 664.943237,98.582016 
	C664.883240,101.243965 663.809265,103.839905 661.314148,104.591797 
	C658.155701,105.543564 654.644226,105.759552 652.390259,101.717712 
z"/>
<path fill="#3056d3" opacity="1.000000" stroke="transparent" 
	d="
M699.739075,122.033188 
	C708.767944,123.101601 712.016418,129.570190 713.584229,136.665329 
	C715.247559,144.192963 713.940308,151.801300 708.370605,157.545975 
	C701.255859,164.884216 688.657471,161.907272 685.268555,152.207886 
	C683.044067,145.841431 683.139587,139.114914 685.045044,132.654953 
	C687.157959,125.491783 691.707031,122.352760 699.739075,122.033188 
z"/>
<path fill="#3056d3" opacity="1.000000" stroke="transparent" 
	d="
M397.617249,122.083557 
	C403.647003,123.641335 407.773102,126.733032 409.512207,132.595856 
	C410.246338,135.070663 409.524933,135.980942 407.048340,135.969406 
	C399.743652,135.935379 392.438599,135.933014 385.133972,135.972595 
	C381.881378,135.990219 381.641937,134.449020 382.618561,131.828690 
	C384.919128,125.656128 389.755463,122.346123 397.617249,122.083557 
z"/>
<path fill="#3056d3" opacity="1.000000" stroke="transparent" 
	d="
M769.992798,127.068878 
	C774.566284,135.977768 774.566284,135.979752 764.895752,135.979721 
	C759.424683,135.979691 753.952759,135.914719 748.482788,135.990723 
	C745.560425,136.031342 744.852417,135.306793 745.806824,132.192581 
	C749.062561,121.569237 760.559021,118.843964 769.992798,127.068878 
z"/>
</svg>