<svg version="1.1" id="Layer_1" xmlns="http://www.w3.org/2000/svg" xmlns:xlink="http://www.w3.org/1999/xlink" x="0px" y="0px"
	 width="100%" viewBox="0 0 496 496" enable-background="new 0 0 496 496" xml:space="preserve">
<path fill="#000000" opacity="1.000000" stroke="none" 
	d="
M145.724258,219.283844 
	C148.642456,233.233932 153.967896,245.731979 161.689804,257.171783 
	C163.518311,259.880646 163.912277,262.036865 160.946487,263.853851 
	C157.958099,265.684692 157.155151,262.734802 156.140213,261.135712 
	C118.042007,201.110367 139.628021,116.839386 210.871475,90.031181 
	C270.262360,67.682999 339.833466,98.545029 359.577362,161.347092 
	C375.103729,210.733902 358.433807,261.380676 317.116547,290.644226 
	C279.589264,317.223450 226.860458,318.060089 188.082977,292.666840 
	C186.589096,291.688568 184.862656,290.863953 184.238464,288.846130 
	C186.168991,284.523682 188.760269,285.181519 192.102249,287.407257 
	C211.919830,300.605591 233.890594,306.342682 257.519684,304.736511 
	C294.811584,302.201630 324.073059,285.136993 343.430176,253.177261 
	C369.917999,209.444366 363.049103,156.094757 326.682190,120.210815 
	C303.597015,97.432259 275.211853,87.885773 242.905090,90.023338 
	C191.179169,93.445755 149.183151,135.030472 144.090195,186.165527 
	C142.983154,197.280457 143.969177,208.028946 145.724258,219.283844 
z"/>
<path fill="#000000" opacity="1.000000" stroke="none" 
	d="
M296.020752,169.012604 
	C296.743744,168.291458 297.237976,167.839294 297.671631,167.335037 
	C305.463348,158.274399 309.916992,160.695312 317.076843,169.720779 
	C319.788177,173.138580 318.230042,176.613632 315.308655,179.507675 
	C308.679535,186.074738 302.098999,192.690933 295.510010,199.298447 
	C294.236053,200.575989 293.013550,201.904816 291.623901,203.360138 
	C293.446716,205.534271 295.048523,207.402588 296.603394,209.309143 
	C299.019958,212.272186 299.717529,215.576813 298.098083,219.104752 
	C296.374268,222.860062 293.481476,225.552780 289.217743,225.236160 
	C285.320923,224.946777 282.988068,226.823074 280.684814,229.360962 
	C272.610168,238.258102 263.767029,245.819153 251.235672,247.720215 
	C245.013077,248.664230 238.934357,248.603592 232.964981,246.787369 
	C229.861023,245.842972 227.512497,246.266998 225.372955,248.710373 
	C221.985809,252.578552 218.237946,255.759094 212.505615,254.892868 
	C210.806305,254.636108 209.838074,256.094513 208.805267,257.136292 
	C197.781555,268.255829 186.793625,279.410919 175.759033,290.519623 
	C174.237747,292.051117 172.535751,293.406860 170.881607,294.801514 
	C169.489899,295.974915 168.160843,295.814728 166.940155,294.477112 
	C165.800781,293.228638 165.368225,291.878052 166.542999,290.458618 
	C167.709763,289.048859 168.933121,287.676666 170.225311,286.381439 
	C182.111115,274.467651 194.040924,262.597656 205.896545,250.653992 
	C208.125732,248.408218 210.272705,246.805954 213.765244,247.703827 
	C217.774826,248.734634 219.877167,245.445587 221.912003,242.995377 
	C225.232590,238.996979 228.468872,238.414703 233.618515,240.004242 
	C246.652237,244.027328 258.656830,241.134827 268.922455,232.006317 
	C272.276947,229.023361 275.334015,225.704880 278.512085,222.524841 
	C281.201874,219.833359 283.472656,216.919785 288.289673,218.453369 
	C291.163361,219.368225 292.890594,215.954910 291.094452,213.056747 
	C290.060669,211.388657 288.516937,210.015305 287.105957,208.606171 
	C282.182465,203.688995 282.163574,203.322220 287.200287,198.271179 
	C294.024017,191.428070 300.871979,184.609024 307.674927,177.745331 
	C308.944702,176.464233 310.517181,175.397827 311.156708,173.454773 
	C310.171356,171.300705 308.556305,169.751160 305.058899,167.489853 
	C296.982880,176.087296 288.794434,184.583069 280.885071,193.331161 
	C277.622650,196.939560 275.122650,196.873856 271.855591,193.419937 
	C266.365143,187.615372 260.679657,181.985275 254.888840,176.478821 
	C251.580231,173.332657 251.797821,170.689453 254.912262,167.631912 
	C262.161743,160.514832 269.332855,153.316681 276.464966,146.081635 
	C280.705688,141.779709 280.574066,141.235535 274.134613,136.928619 
	C267.664978,143.674591 261.009674,150.618515 254.347275,157.555618 
	C253.539551,158.396652 252.691818,159.199173 251.865814,160.022751 
	C245.030670,166.837784 244.862305,166.816437 238.184296,159.902267 
	C236.605865,158.268021 235.023865,155.913269 232.383453,156.912399 
	C229.603455,157.964340 229.976654,160.560715 230.583328,162.929749 
	C231.148346,165.136154 229.577652,166.292465 228.333298,167.598999 
	C223.513641,172.659378 218.122055,177.167892 213.971649,182.874359 
	C206.411057,193.269516 205.280685,204.723846 208.985504,216.607086 
	C210.233398,220.609680 209.744736,223.100388 206.829117,225.832642 
	C203.460068,228.989838 198.843704,231.665680 201.080017,237.764267 
	C201.617401,239.229752 199.712448,240.283798 198.676147,241.320496 
	C185.717987,254.283554 172.765488,267.252533 159.736435,280.144104 
	C158.274139,281.590942 156.866043,284.598419 154.104126,281.969238 
	C151.306244,279.305786 153.740463,277.658142 155.531052,275.870026 
	C167.320450,264.096893 179.087036,252.300873 190.832031,240.483459 
	C192.095978,239.211716 193.919342,238.042526 193.661621,235.990326 
	C192.940430,230.247101 196.163376,226.561005 200.027451,223.186584 
	C202.265503,221.232147 202.855133,219.256912 201.966553,216.167816 
	C197.310379,199.980957 201.804688,185.996872 212.902969,173.809525 
	C214.695969,171.840607 216.572952,169.937042 218.527527,168.129120 
	C221.232849,165.626831 223.000854,163.188019 223.332123,158.966812 
	C224.007721,150.357834 233.429626,147.154770 240.244507,152.680008 
	C245.646469,157.059708 245.620529,157.033997 250.678864,151.926437 
	C256.657288,145.889832 262.642792,139.859009 268.706879,133.908920 
	C273.779907,128.931274 277.226715,129.305313 283.090027,135.256454 
	C288.293762,140.538177 288.497467,143.952972 283.481598,148.849731 
	C275.756531,156.391296 267.874207,163.771759 259.174286,172.063385 
	C264.962524,177.587845 269.716309,182.157791 274.509979,186.685516 
	C276.700989,188.754974 278.108612,186.917374 279.513092,185.519089 
	C284.943756,180.112320 290.349030,174.680084 296.020752,169.012604 
z"/>
<path fill="#000000" opacity="1.000000" stroke="none" 
	d="
M152.035233,192.289749 
	C153.631622,169.365356 161.386047,149.413681 176.114059,132.253403 
	C205.528595,97.981155 255.508835,88.043198 295.703003,108.451958 
	C324.102173,122.871742 342.170746,145.721237 348.515228,176.698639 
	C357.459198,220.367966 338.749298,262.258972 300.025146,283.605804 
	C266.175934,302.265320 232.142639,300.958649 198.821259,281.409698 
	C197.418716,280.586853 195.828186,279.907654 194.951767,278.032135 
	C196.655121,274.131012 199.013855,273.985657 202.656296,276.129822 
	C235.124664,295.242767 267.952148,295.311462 300.153107,276.115509 
	C324.925781,261.347809 339.617218,238.603973 343.293579,210.246979 
	C350.145996,157.391510 315.518982,116.849899 273.039215,107.287788 
	C224.644196,96.394150 182.196594,121.483177 165.359100,162.351364 
	C153.632645,190.813919 156.236847,218.635071 171.963821,245.121765 
	C173.970612,248.501511 175.462524,251.384445 170.032410,253.914856 
	C156.929764,235.644806 151.482712,215.120728 152.035233,192.289749 
z"/>
<path fill="#000000" opacity="1.000000" stroke="none" 
	d="
M95.707062,379.254150 
	C94.607605,376.223175 93.195404,374.444519 89.875549,374.325958 
	C85.829002,374.181458 84.045647,375.463348 84.275467,379.698761 
	C84.509300,384.008392 84.236404,388.343872 84.249748,392.667847 
	C84.257324,395.120483 83.202339,396.124847 80.679459,396.359253 
	C70.103127,397.341949 69.713730,397.066376 69.709946,386.531281 
	C69.704865,372.393738 69.818840,358.254761 69.636612,344.119568 
	C69.584244,340.057404 70.866585,338.475494 75.042015,338.610870 
	C82.684959,338.858673 90.342041,338.632721 97.992294,338.704193 
	C104.684563,338.766724 110.883202,340.477722 113.616280,347.207825 
	C116.547508,354.425903 117.019402,362.071655 111.393791,368.320190 
	C108.516655,371.515900 108.488274,373.965973 110.092270,377.553009 
	C112.651779,383.276855 114.695686,389.231232 117.089516,395.429688 
	C112.358498,396.974457 108.094017,396.269226 103.896362,396.166321 
	C101.814445,396.115265 101.453423,394.132690 100.856033,392.638519 
	C99.128548,388.317657 97.489853,383.961304 95.707062,379.254150 
M88.793793,351.369843 
	C83.729378,350.919739 84.391396,354.467468 84.302872,357.646576 
	C84.207039,361.087524 86.119125,361.870117 89.049927,361.737091 
	C91.534523,361.624298 94.030556,361.754608 96.514107,361.629761 
	C98.991760,361.505249 100.496468,360.149017 100.803268,357.632172 
	C101.096207,355.229065 100.234314,353.435974 97.978996,352.362366 
	C95.308647,351.091248 92.464508,351.408997 88.793793,351.369843 
z"/>
<path fill="#000000" opacity="1.000000" stroke="none" 
	d="
M218.351807,391.718140 
	C214.469269,388.483093 212.507370,384.522339 211.382538,380.068848 
	C211.096451,378.936218 210.706436,377.797028 211.690613,376.795135 
	C213.902481,374.543488 224.830582,376.202087 226.605179,379.053955 
	C230.002853,384.514130 235.111313,386.749023 240.457748,385.112457 
	C242.958267,384.347076 245.280457,383.198273 245.515213,380.278992 
	C245.761566,377.215881 243.417068,375.838104 240.978851,375.095093 
	C235.424698,373.402435 229.702026,372.230316 224.214951,370.357086 
	C213.900436,366.835876 209.806656,357.787384 213.834930,348.109497 
	C214.675079,346.091003 215.935532,344.364990 217.506897,342.826019 
	C226.021225,334.487244 250.635696,334.993866 257.017487,350.698822 
	C259.177643,356.014801 258.559174,357.272400 252.969925,357.307220 
	C248.590210,357.334503 244.389374,358.002960 241.288132,352.993652 
	C239.190704,349.605774 234.717255,348.754028 230.445145,350.255371 
	C228.559738,350.917999 227.122818,352.020172 226.931320,354.032532 
	C226.728073,356.167938 228.226212,357.499237 230.021210,358.085358 
	C233.963516,359.372681 237.998505,360.373260 241.978241,361.549774 
	C244.683090,362.349487 247.459702,363.018921 250.027084,364.149048 
	C256.560852,367.025085 260.404358,372.053528 260.165161,379.318298 
	C259.922882,386.677765 256.713196,392.704681 249.505844,395.332550 
	C238.784470,399.241669 228.308823,398.697815 218.351807,391.718140 
z"/>
<path fill="#000000" opacity="1.000000" stroke="none" 
	d="
M370.608887,393.401184 
	C366.120667,393.904633 362.232635,397.237976 357.186432,395.594269 
	C354.967316,394.871368 352.734589,394.287720 350.745361,393.067688 
	C342.793152,388.190460 339.297180,376.278168 342.714966,365.837524 
	C345.738098,356.602417 352.846161,351.951630 362.520782,352.584564 
	C365.170685,352.757965 367.186707,354.214081 369.533875,355.082184 
	C373.205566,351.736176 377.608917,352.993744 381.798462,353.234680 
	C383.901306,353.355652 384.274109,355.117432 384.267853,356.924438 
	C384.224121,369.572723 384.557770,382.236328 384.033630,394.864441 
	C383.622711,404.765015 378.561340,409.564270 368.677216,411.572876 
	C362.555328,412.816895 356.761475,412.099243 351.208405,409.418732 
	C346.551483,407.170776 343.733459,403.513702 343.235321,398.268860 
	C348.205414,395.742126 354.137726,396.260193 357.744171,399.580109 
	C360.239441,401.877045 363.084320,402.167725 366.099121,401.141846 
	C369.610382,399.947021 370.805389,397.189392 370.608887,393.401184 
M355.640106,370.450439 
	C354.777893,378.451508 356.829987,382.804047 361.897705,383.723114 
	C366.879608,384.626587 370.386169,382.317566 371.975494,377.086975 
	C373.412994,372.356079 371.405792,366.939606 367.499084,365.007263 
	C363.191620,362.876709 359.233856,364.495911 355.640106,370.450439 
z"/>
<path fill="#000000" opacity="1.000000" stroke="none" 
	d="
M128.409821,392.695984 
	C120.637840,386.116669 119.434074,377.769531 121.243408,368.870361 
	C122.900108,360.722015 128.012466,355.397888 136.236435,353.229858 
	C151.694962,349.154694 164.101746,358.119812 165.054077,374.019135 
	C165.239777,377.119415 163.914474,378.233551 161.016159,378.218964 
	C154.365601,378.185486 147.714661,378.230560 141.063873,378.242371 
	C139.439590,378.245239 137.815308,378.242798 136.140625,378.242798 
	C136.844070,384.875702 143.591385,388.169464 147.994370,383.970215 
	C152.874817,379.315582 157.967804,381.065063 163.966217,381.038818 
	C162.597427,387.831329 159.163788,392.426941 153.738297,394.943909 
	C145.194626,398.907410 136.648605,398.476166 128.409821,392.695984 
M148.866379,367.678558 
	C150.503510,366.723083 149.620605,365.801697 148.774063,364.975800 
	C145.482300,361.764069 138.850052,362.984222 136.209976,367.816498 
	C140.406174,367.816498 144.290024,367.816498 148.866379,367.678558 
z"/>
<path fill="#000000" opacity="1.000000" stroke="none" 
	d="
M434.191681,375.824890 
	C432.883118,378.926178 430.437164,378.039368 428.425079,378.081329 
	C421.113983,378.233856 413.799652,378.228973 406.487061,378.321930 
	C406.042847,378.327576 405.602936,378.666840 405.177368,378.844086 
	C406.423279,385.171783 413.137390,388.172516 417.765350,383.833862 
	C422.546021,379.352020 427.517578,381.204498 432.609741,380.977600 
	C432.534332,390.312683 423.444153,397.371155 412.177246,397.311646 
	C399.117432,397.242676 389.692719,387.821869 389.798828,374.942444 
	C389.908722,361.600586 398.900330,352.491669 411.961151,352.490997 
	C426.088470,352.490265 434.301544,360.918854 434.191681,375.824890 
M407.430786,364.496094 
	C406.618896,365.265137 405.474915,365.896210 406.392822,367.611511 
	C410.564941,367.903107 414.872406,368.419067 419.848145,367.036163 
	C416.289459,362.206818 412.293182,362.689301 407.430786,364.496094 
z"/>
<path fill="#000000" opacity="1.000000" stroke="none" 
	d="
M305.291138,371.001343 
	C305.278717,378.328522 305.185150,385.157349 305.290833,391.983124 
	C305.340363,395.183044 304.034698,396.775909 300.857941,396.313599 
	C297.732452,395.858704 294.281616,397.753510 291.446747,394.785706 
	C290.459198,393.751801 289.405640,395.332764 288.427887,395.762268 
	C276.355530,401.065399 265.839783,394.408539 265.678375,381.246277 
	C265.582397,373.420654 265.873657,365.584900 265.582092,357.768951 
	C265.382111,352.408295 268.828339,352.923767 272.175842,352.966492 
	C275.581482,353.009918 279.484955,352.096863 279.316833,357.812958 
	C279.106445,364.966797 279.340057,372.132690 279.301147,379.292969 
	C279.279907,383.202057 280.695923,385.733917 284.962189,385.932251 
	C289.429718,386.139862 291.449463,383.569397 291.567322,379.552795 
	C291.777313,372.397919 291.841431,365.227325 291.604767,358.075287 
	C291.471191,354.038879 293.139893,352.646820 296.897644,352.951904 
	C298.387451,353.072815 299.893250,353.007599 301.391785,353.007538 
	C304.071167,353.007446 305.318390,354.298645 305.283173,357.013550 
	C305.224854,361.508820 305.282654,366.005615 305.291138,371.001343 
z"/>
<path fill="#000000" opacity="1.000000" stroke="none" 
	d="
M193.123566,359.288940 
	C195.124298,353.311310 199.748245,351.301849 205.150436,353.600586 
	C207.860214,354.753601 207.857391,356.877930 207.101913,358.988037 
	C202.961838,370.551453 198.671860,382.061127 194.476685,393.604950 
	C193.635666,395.919189 191.891449,396.547913 189.746536,396.295776 
	C187.105515,395.985321 183.452866,397.722687 182.125031,394.322540 
	C176.960587,381.098175 172.149246,367.735931 167.158920,354.296814 
	C171.589935,352.257202 175.416870,353.004547 179.139648,353.222595 
	C181.329010,353.350861 181.770981,355.408142 182.321671,357.192322 
	C184.014359,362.676453 185.771729,368.140594 187.769669,374.451843 
	C190.591949,369.210785 191.315109,364.264313 193.123566,359.288940 
z"/>
<path fill="#000000" opacity="1.000000" stroke="none" 
	d="
M312.623962,367.008362 
	C312.622833,364.847015 312.622162,363.183594 312.621429,361.520142 
	C312.617737,353.123108 315.281036,350.660095 323.333893,353.314331 
	C326.721313,354.430786 329.036530,354.113739 331.971069,352.946564 
	C333.568878,352.311066 335.548920,352.636688 337.465942,352.522278 
	C339.057281,356.102844 338.263000,359.598450 338.185883,363.000549 
	C338.132782,365.342987 336.092621,365.080872 334.470825,365.343292 
	C329.089386,366.213898 326.564789,368.841370 326.325226,374.310089 
	C326.077881,379.956360 326.002411,385.622894 326.176086,391.270538 
	C326.296478,395.183899 324.785950,396.810608 320.910522,396.390900 
	C319.594482,396.248383 318.245697,396.273193 316.921844,396.365387 
	C313.710724,396.588989 312.522705,395.165070 312.578674,391.958038 
	C312.720917,383.809662 312.625000,375.657135 312.623962,367.008362 
z"/>
</svg>