<svg version="1.1" id="Layer_1" xmlns="http://www.w3.org/2000/svg" xmlns:xlink="http://www.w3.org/1999/xlink" x="0px" y="0px"
	 width="100%" viewBox="0 0 500 500" enable-background="new 0 0 500 500" xml:space="preserve">
<path fill="#010101" opacity="1.000000" stroke="none" 
	d="
M272.000000,501.000000 
	C181.333359,501.000000 91.166710,501.000000 1.000048,501.000000 
	C1.000032,334.333405 1.000032,167.666794 1.000016,1.000138 
	C167.666565,1.000092 334.333130,1.000092 500.999756,1.000046 
	C500.999847,167.666519 500.999847,334.333038 500.999939,500.999786 
	C424.833344,501.000000 348.666656,501.000000 272.000000,501.000000 
M283.672882,100.511635 
	C324.608368,115.051949 349.352814,143.842514 354.437531,186.796982 
	C359.245483,227.413101 343.904846,261.232819 309.605652,283.810333 
	C270.976501,309.238007 231.302231,306.847748 192.268631,282.333130 
	C191.323242,283.230682 190.157959,284.337006 188.967285,285.467438 
	C228.221344,316.012939 293.807587,313.143951 331.956757,271.738190 
	C372.163788,228.098831 367.483154,158.921936 327.574615,120.784607 
	C285.446198,80.525871 218.424820,80.694633 177.172134,121.231262 
	C135.320282,162.356659 138.738708,227.722580 165.741455,262.201935 
	C168.130142,260.662750 169.929184,259.432068 167.624359,256.006317 
	C152.492188,233.514648 147.279022,208.679077 151.428879,182.016754 
	C154.994690,159.106873 165.243057,139.253418 182.376083,123.727264 
	C211.355484,97.465775 245.137665,89.889839 283.672882,100.511635 
M236.274185,154.099960 
	C230.512177,154.431824 226.142929,157.530899 226.620529,162.523895 
	C227.022308,166.724121 224.730118,168.457565 222.553879,170.746094 
	C220.488739,172.917755 218.244904,174.921448 216.210922,177.120453 
	C205.799454,188.376602 202.355591,201.555847 206.293213,216.318085 
	C207.193893,219.694763 206.347321,221.340500 204.334503,223.674026 
	C201.926270,226.465988 198.625122,229.922165 198.688278,233.030151 
	C198.759201,236.520752 197.465561,238.177856 195.529434,240.090820 
	C183.352310,252.122269 171.145844,264.123993 158.748978,276.332642 
	C160.254669,277.908752 161.254395,278.955231 162.490723,280.249390 
	C174.771713,267.927307 186.919373,255.860229 198.900070,243.629562 
	C201.749908,240.720276 206.805130,238.585098 203.971573,232.768600 
	C203.681824,232.173828 204.780090,230.683243 205.513168,229.855316 
	C207.055603,228.113327 208.668243,226.395111 210.462387,224.923569 
	C213.036041,222.812668 213.292389,220.580521 212.213196,217.464233 
	C207.188187,202.954254 210.758362,190.359360 221.269989,179.501633 
	C224.513519,176.151321 227.951035,172.980316 231.053421,169.507202 
	C231.956985,168.495667 232.036591,166.731094 232.443787,165.297440 
	C232.972092,163.437454 233.450302,161.563248 233.950089,159.695160 
	C235.707138,160.262238 237.559341,160.641891 239.185211,161.467346 
	C240.146576,161.955429 240.729492,163.167450 241.517746,164.021484 
	C246.156830,169.047760 246.779861,169.077484 251.732391,164.083282 
	C259.448456,156.302368 267.119965,148.477264 275.239166,140.235565 
	C277.347290,142.508926 278.999878,144.291061 280.814484,146.247879 
	C279.717041,147.455658 278.778259,148.576797 277.748962,149.607498 
	C270.465057,156.901474 263.202698,164.217850 255.842819,171.434616 
	C253.470825,173.760468 253.194977,175.607590 255.789154,178.068115 
	C261.694214,183.668930 267.480194,189.404846 273.109558,195.282227 
	C275.499115,197.777039 277.173035,197.987549 279.611450,195.344421 
	C283.785889,190.819534 288.392334,186.694580 292.595734,182.194626 
	C296.424438,178.095810 299.958649,173.721878 303.622650,169.469223 
	C303.957916,170.074127 304.293213,170.679031 304.628479,171.283936 
	C306.530975,172.783813 308.433441,174.283691 310.582886,175.978287 
	C309.199738,177.458939 308.118835,178.681320 306.969543,179.835617 
	C300.035034,186.800598 293.193817,193.864151 286.087280,200.649506 
	C283.167450,203.437408 282.680054,205.578323 285.977753,208.274460 
	C287.764709,209.735428 289.560425,211.366959 290.766663,213.289032 
	C291.493256,214.446869 291.695557,216.692062 291.026489,217.745667 
	C290.406494,218.721970 288.319153,218.779037 286.869629,219.213074 
	C284.716278,219.857834 282.169037,219.962723 280.485535,221.225464 
	C277.728088,223.293716 275.499023,226.078506 273.101685,228.612717 
	C262.744171,239.561615 250.329330,244.048035 235.645126,239.606064 
	C231.237335,238.272690 228.272095,238.271667 225.324280,242.039474 
	C222.684189,245.413940 219.827621,248.853027 214.463440,246.528442 
	C213.684845,246.191040 211.716187,248.038879 210.585236,249.164017 
	C201.496124,258.206573 192.556152,267.400299 183.397614,276.371216 
	C179.379044,280.307465 174.957764,283.832581 170.423553,287.803406 
	C172.670746,289.935516 173.657013,290.871277 174.771561,291.928772 
	C176.980453,290.031708 178.982864,288.527130 180.734573,286.772308 
	C191.197144,276.290894 201.582352,265.732178 212.054871,255.260803 
	C213.161942,254.153854 214.830658,252.513214 215.961899,252.710236 
	C221.705551,253.710571 224.994171,250.253891 228.248932,246.630463 
	C230.066513,244.607010 231.717499,243.937973 234.641357,244.878403 
	C243.124619,247.606903 251.628113,247.005386 260.059662,244.034958 
	C269.105438,240.848160 275.017975,233.772903 281.652985,227.501953 
	C283.083496,226.149933 285.567505,225.977066 287.434875,225.007965 
	C290.386414,223.476257 294.452209,222.378433 295.766815,219.891815 
	C297.058899,217.447784 296.072693,213.306732 295.022400,210.279434 
	C294.242218,208.030640 291.761871,206.371689 290.094025,204.511581 
	C290.377167,204.103363 290.453766,203.948746 290.569183,203.832718 
	C297.731323,196.632172 304.907349,189.445419 312.057922,182.233459 
	C317.151093,177.096573 317.065582,174.775497 311.669189,169.383087 
	C305.923218,163.641388 303.883057,163.535614 298.499359,168.978348 
	C291.257660,176.299408 284.091034,183.694672 277.372375,190.566925 
	C271.622559,184.897430 266.345978,179.694611 260.166565,173.601562 
	C267.535126,166.629883 275.085510,159.604782 282.495514,152.434631 
	C287.671936,147.425766 287.494049,145.222977 281.959808,139.687225 
	C276.532623,134.258575 274.136841,134.125946 269.154175,139.189590 
	C261.817078,146.645935 254.543915,154.165146 247.782455,161.104492 
	C243.624954,158.398926 240.344513,156.264114 236.274185,154.099960 
M312.880859,270.352783 
	C353.498566,235.863800 357.804871,176.923141 322.686798,136.137695 
	C289.380524,97.456482 228.409668,93.970032 189.677994,129.151108 
	C150.539795,164.701447 151.913315,220.195038 176.162750,251.774384 
	C179.457764,250.164871 179.519608,248.327347 177.553223,245.191681 
	C167.258514,228.775208 162.793701,210.745773 164.311935,191.456955 
	C168.539948,137.740936 220.164474,99.875938 272.539642,112.563965 
	C309.200073,121.445038 331.997650,145.207809 339.283783,181.973190 
	C345.830780,215.008820 335.461182,243.642914 310.069519,265.863770 
	C289.835480,283.571075 265.750153,290.005585 239.062637,286.143463 
	C225.881592,284.235962 213.870132,279.217224 203.286087,272.055878 
	C201.545746,273.086456 200.182510,273.893707 198.652557,274.799683 
	C231.856094,299.624023 279.918518,297.584106 312.880859,270.352783 
M111.567001,382.852173 
	C110.086517,379.166779 108.606041,375.481415 107.111855,371.761902 
	C108.155121,370.872314 109.097305,370.181702 109.906868,369.360382 
	C115.244339,363.945099 115.990952,357.427185 114.313629,350.389069 
	C112.833260,344.177338 108.672791,340.118530 102.558136,339.780426 
	C91.864922,339.189209 81.115440,339.615601 70.502884,339.615601 
	C70.502884,358.423615 70.502884,377.131744 70.502884,395.780762 
	C75.003563,395.780762 79.119698,395.780762 83.778450,395.780762 
	C83.778450,388.509369 83.778450,381.447418 83.778450,374.467041 
	C94.062729,373.389648 94.061890,373.389954 97.389496,382.178986 
	C97.742172,383.110474 98.117897,384.033234 98.472633,384.963959 
	C102.965279,396.751251 102.964828,396.751984 115.589119,395.860596 
	C115.734924,395.850250 115.874115,395.746338 116.481766,395.489197 
	C114.953026,391.533020 113.413254,387.548309 111.567001,382.852173 
M238.247849,385.965881 
	C232.594955,386.143433 228.163986,384.304596 225.870834,378.692413 
	C225.546860,377.899536 224.646362,376.807129 223.973999,376.778961 
	C219.771149,376.603058 215.557281,376.690186 210.870773,376.690186 
	C211.718048,379.587036 212.112915,381.551941 212.854965,383.375580 
	C218.155945,396.403351 239.233826,401.850464 252.046448,393.559937 
	C257.619354,389.954010 259.923187,384.594482 259.704041,378.239044 
	C259.483887,371.855377 256.132172,367.266754 250.249420,364.739380 
	C247.671005,363.631561 244.953918,362.822327 242.257874,362.018005 
	C238.126022,360.785339 233.823700,359.997101 229.870590,358.354156 
	C228.263672,357.686310 226.306534,355.153412 226.468506,353.685364 
	C226.636368,352.164062 228.955170,350.309937 230.725037,349.646118 
	C235.384781,347.898438 240.203903,350.108948 243.293839,354.265839 
	C244.250946,355.553467 246.201965,356.606628 247.813034,356.797974 
	C251.084427,357.186462 254.434326,356.914062 257.935577,356.914062 
	C257.863373,355.821136 257.950867,354.976318 257.735474,354.217499 
	C255.327286,345.733429 249.658142,340.609924 241.145233,338.789154 
	C232.334656,336.904663 223.720795,337.205017 216.954742,344.112518 
	C209.712021,351.506622 211.963303,363.955139 221.259155,368.524323 
	C224.495911,370.115295 228.135040,370.904938 231.616257,371.976532 
	C235.418320,373.146912 239.389938,373.903015 242.999939,375.492920 
	C244.422363,376.119446 245.877563,378.531708 245.839691,380.095001 
	C245.801163,381.685852 244.155502,383.460449 242.806015,384.716797 
	C241.940964,385.522186 240.338058,385.535034 238.247849,385.965881 
M345.418365,361.023376 
	C344.427612,363.472260 343.133942,365.845551 342.500610,368.383636 
	C340.229889,377.483856 343.534607,387.483704 350.126709,392.170410 
	C356.403229,396.632843 363.216064,396.408813 371.509521,391.835846 
	C370.678925,395.116943 369.945496,399.208984 367.558014,400.767975 
	C365.381561,402.189209 359.953735,402.153381 358.499969,400.510834 
	C353.795837,395.195618 348.599884,398.224976 343.407501,397.388885 
	C345.010315,404.764526 347.826294,408.461548 353.974030,410.079987 
	C357.914825,411.117401 362.198700,411.616486 366.252075,411.317383 
	C378.144928,410.439850 383.484741,404.616760 383.755096,392.664703 
	C383.943298,384.347321 383.801361,376.022400 383.805115,367.700867 
	C383.807159,363.122742 383.805481,358.544617 383.805481,353.045166 
	C379.057220,355.303345 373.641602,350.599518 370.308044,356.532776 
	C361.661377,350.380127 352.914948,351.685150 345.418365,361.023376 
M132.851151,394.839264 
	C147.628616,400.113037 161.623184,393.927734 163.088837,381.133789 
	C157.907150,381.942902 152.488434,379.534576 147.802750,384.585541 
	C146.337082,386.165466 141.436707,385.560425 138.618286,384.543213 
	C136.635544,383.827667 135.514648,380.724091 134.008926,378.686768 
	C134.374130,378.254150 134.739349,377.821503 135.104568,377.388885 
	C144.830505,377.388885 154.556427,377.388885 164.246704,377.388885 
	C164.674850,363.689636 158.854599,355.355927 147.764786,353.207642 
	C136.295563,350.985840 126.333069,356.068909 122.540306,366.077606 
	C118.222305,377.472351 122.016792,388.617859 132.851151,394.839264 
M391.877258,366.524109 
	C386.638947,384.216248 397.244751,398.293549 414.730804,396.858063 
	C424.297607,396.072693 431.948029,389.419128 432.533264,381.247498 
	C427.332642,381.724915 422.218536,380.015045 417.305176,384.622253 
	C412.501648,389.126495 404.694397,384.580719 404.446350,377.502075 
	C414.221100,377.502075 423.989014,377.502075 433.717712,377.502075 
	C434.560547,364.593719 429.197266,356.320740 418.485199,353.556061 
	C406.886383,350.562531 397.339020,354.983948 391.877258,366.524109 
M297.594299,353.660492 
	C295.825134,353.660492 294.055969,353.660492 291.986542,353.660492 
	C291.986542,362.938599 292.094818,371.594086 291.939362,380.244843 
	C291.865265,384.367157 289.473816,386.729950 285.275269,386.733765 
	C281.029724,386.737610 278.872681,384.450958 278.849854,380.175476 
	C278.830292,376.511444 278.760132,372.847656 278.746796,369.183624 
	C278.728302,364.106689 278.742126,359.029602 278.742126,353.916840 
	C274.107025,353.916840 270.174042,353.916840 266.096893,353.916840 
	C266.096893,363.824554 265.846588,373.485535 266.171631,383.127136 
	C266.461334,391.721558 271.600342,396.805176 280.187164,396.737244 
	C284.063416,396.706604 287.926147,394.967896 291.681061,394.032532 
	C295.159271,398.314423 300.203217,394.994446 304.630554,396.057434 
	C304.630554,381.592865 304.630554,367.840454 304.630554,353.660583 
	C302.436310,353.660583 300.463867,353.660583 297.594299,353.660492 
M182.377960,394.398010 
	C187.113098,397.893280 192.866776,396.528473 194.749054,391.433197 
	C197.628128,383.639618 200.469727,375.832245 203.337509,368.034485 
	C205.023956,363.448914 206.730331,358.870636 208.653473,353.679871 
	C205.641708,353.679871 203.463989,353.963562 201.388626,353.623169 
	C196.466095,352.815796 194.348953,354.941193 193.293335,359.640411 
	C192.084366,365.022308 190.064484,370.222076 188.396896,375.500977 
	C188.066895,375.454254 187.736877,375.407501 187.406876,375.360779 
	C185.175735,368.157379 182.944595,360.953979 180.789291,353.995422 
	C176.254333,353.995422 172.168594,353.995422 167.562439,353.995422 
	C172.516449,367.504852 177.305740,380.565155 182.377960,394.398010 
M325.416962,387.411438 
	C325.421844,384.422638 325.349915,381.431396 325.445435,378.445496 
	C325.789764,367.682465 327.352539,365.910889 337.864014,364.354034 
	C337.864014,360.632477 337.864014,356.880768 337.864014,352.061920 
	C333.587982,353.382507 329.792206,354.554779 325.939728,355.744568 
	C322.529999,351.184998 317.509918,354.806335 313.222931,353.608490 
	C313.222931,368.181396 313.222931,382.020264 313.222931,395.875732 
	C317.361206,395.875732 321.157288,395.875732 325.416931,395.875732 
	C325.416931,393.295013 325.416931,390.835693 325.416962,387.411438 
z"/>
<path fill="#D7D7D7" opacity="1.000000" stroke="none" 
	d="
M283.280182,100.427750 
	C245.137665,89.889839 211.355484,97.465775 182.376083,123.727264 
	C165.243057,139.253418 154.994690,159.106873 151.428879,182.016754 
	C147.279022,208.679077 152.492188,233.514648 167.624359,256.006317 
	C169.929184,259.432068 168.130142,260.662750 165.741455,262.201935 
	C138.738708,227.722580 135.320282,162.356659 177.172134,121.231262 
	C218.424820,80.694633 285.446198,80.525871 327.574615,120.784607 
	C367.483154,158.921936 372.163788,228.098831 331.956757,271.738190 
	C293.807587,313.143951 228.221344,316.012939 188.967285,285.467438 
	C190.157959,284.337006 191.323242,283.230682 192.268631,282.333130 
	C231.302231,306.847748 270.976501,309.238007 309.605652,283.810333 
	C343.904846,261.232819 359.245483,227.413101 354.437531,186.796982 
	C349.352814,143.842514 324.608368,115.051949 283.280182,100.427750 
z"/>
<path fill="#D9D9D9" opacity="1.000000" stroke="none" 
	d="
M236.669128,154.114624 
	C240.344513,156.264114 243.624954,158.398926 247.782455,161.104492 
	C254.543915,154.165146 261.817078,146.645935 269.154175,139.189590 
	C274.136841,134.125946 276.532623,134.258575 281.959808,139.687225 
	C287.494049,145.222977 287.671936,147.425766 282.495514,152.434631 
	C275.085510,159.604782 267.535126,166.629883 260.166565,173.601562 
	C266.345978,179.694611 271.622559,184.897430 277.372375,190.566925 
	C284.091034,183.694672 291.257660,176.299408 298.499359,168.978348 
	C303.883057,163.535614 305.923218,163.641388 311.669189,169.383087 
	C317.065582,174.775497 317.151093,177.096573 312.057922,182.233459 
	C304.907349,189.445419 297.731323,196.632172 290.569183,203.832718 
	C290.453766,203.948746 290.377167,204.103363 290.094025,204.511581 
	C291.761871,206.371689 294.242218,208.030640 295.022400,210.279434 
	C296.072693,213.306732 297.058899,217.447784 295.766815,219.891815 
	C294.452209,222.378433 290.386414,223.476257 287.434875,225.007965 
	C285.567505,225.977066 283.083496,226.149933 281.652985,227.501953 
	C275.017975,233.772903 269.105438,240.848160 260.059662,244.034958 
	C251.628113,247.005386 243.124619,247.606903 234.641357,244.878403 
	C231.717499,243.937973 230.066513,244.607010 228.248932,246.630463 
	C224.994171,250.253891 221.705551,253.710571 215.961899,252.710236 
	C214.830658,252.513214 213.161942,254.153854 212.054871,255.260803 
	C201.582352,265.732178 191.197144,276.290894 180.734573,286.772308 
	C178.982864,288.527130 176.980453,290.031708 174.771561,291.928772 
	C173.657013,290.871277 172.670746,289.935516 170.423553,287.803406 
	C174.957764,283.832581 179.379044,280.307465 183.397614,276.371216 
	C192.556152,267.400299 201.496124,258.206573 210.585236,249.164017 
	C211.716187,248.038879 213.684845,246.191040 214.463440,246.528442 
	C219.827621,248.853027 222.684189,245.413940 225.324280,242.039474 
	C228.272095,238.271667 231.237335,238.272690 235.645126,239.606064 
	C250.329330,244.048035 262.744171,239.561615 273.101685,228.612717 
	C275.499023,226.078506 277.728088,223.293716 280.485535,221.225464 
	C282.169037,219.962723 284.716278,219.857834 286.869629,219.213074 
	C288.319153,218.779037 290.406494,218.721970 291.026489,217.745667 
	C291.695557,216.692062 291.493256,214.446869 290.766663,213.289032 
	C289.560425,211.366959 287.764709,209.735428 285.977753,208.274460 
	C282.680054,205.578323 283.167450,203.437408 286.087280,200.649506 
	C293.193817,193.864151 300.035034,186.800598 306.969543,179.835617 
	C308.118835,178.681320 309.199738,177.458939 310.582886,175.978287 
	C308.433441,174.283691 306.530975,172.783813 304.628479,171.283936 
	C304.293213,170.679031 303.957916,170.074127 303.622650,169.469223 
	C299.958649,173.721878 296.424438,178.095810 292.595734,182.194626 
	C288.392334,186.694580 283.785889,190.819534 279.611450,195.344421 
	C277.173035,197.987549 275.499115,197.777039 273.109558,195.282227 
	C267.480194,189.404846 261.694214,183.668930 255.789154,178.068115 
	C253.194977,175.607590 253.470825,173.760468 255.842819,171.434616 
	C263.202698,164.217850 270.465057,156.901474 277.748962,149.607498 
	C278.778259,148.576797 279.717041,147.455658 280.814484,146.247879 
	C278.999878,144.291061 277.347290,142.508926 275.239166,140.235565 
	C267.119965,148.477264 259.448456,156.302368 251.732391,164.083282 
	C246.779861,169.077484 246.156830,169.047760 241.517746,164.021484 
	C240.729492,163.167450 240.146576,161.955429 239.185211,161.467346 
	C237.559341,160.641891 235.707138,160.262238 233.950089,159.695160 
	C233.450302,161.563248 232.972092,163.437454 232.443787,165.297440 
	C232.036591,166.731094 231.956985,168.495667 231.053421,169.507202 
	C227.951035,172.980316 224.513519,176.151321 221.269989,179.501633 
	C210.758362,190.359360 207.188187,202.954254 212.213196,217.464233 
	C213.292389,220.580521 213.036041,222.812668 210.462387,224.923569 
	C208.668243,226.395111 207.055603,228.113327 205.513168,229.855316 
	C204.780090,230.683243 203.681824,232.173828 203.971573,232.768600 
	C206.805130,238.585098 201.749908,240.720276 198.900070,243.629562 
	C186.919373,255.860229 174.771713,267.927307 162.490723,280.249390 
	C161.254395,278.955231 160.254669,277.908752 158.748978,276.332642 
	C171.145844,264.123993 183.352310,252.122269 195.529434,240.090820 
	C197.465561,238.177856 198.759201,236.520752 198.688278,233.030151 
	C198.625122,229.922165 201.926270,226.465988 204.334503,223.674026 
	C206.347321,221.340500 207.193893,219.694763 206.293213,216.318085 
	C202.355591,201.555847 205.799454,188.376602 216.210922,177.120453 
	C218.244904,174.921448 220.488739,172.917755 222.553879,170.746094 
	C224.730118,168.457565 227.022308,166.724121 226.620529,162.523895 
	C226.142929,157.530899 230.512177,154.431824 236.669128,154.114624 
z"/>
<path fill="#DBDBDB" opacity="1.000000" stroke="none" 
	d="
M312.620361,270.597382 
	C279.918518,297.584106 231.856094,299.624023 198.652557,274.799683 
	C200.182510,273.893707 201.545746,273.086456 203.286087,272.055878 
	C213.870132,279.217224 225.881592,284.235962 239.062637,286.143463 
	C265.750153,290.005585 289.835480,283.571075 310.069519,265.863770 
	C335.461182,243.642914 345.830780,215.008820 339.283783,181.973190 
	C331.997650,145.207809 309.200073,121.445038 272.539642,112.563965 
	C220.164474,99.875938 168.539948,137.740936 164.311935,191.456955 
	C162.793701,210.745773 167.258514,228.775208 177.553223,245.191681 
	C179.519608,248.327347 179.457764,250.164871 176.162750,251.774384 
	C151.913315,220.195038 150.539795,164.701447 189.677994,129.151108 
	C228.409668,93.970032 289.380524,97.456482 322.686798,136.137695 
	C357.804871,176.923141 353.498566,235.863800 312.620361,270.597382 
z"/>
<path fill="#F9D900" opacity="1.000000" stroke="none" 
	d="
M111.720245,383.207886 
	C113.413254,387.548309 114.953026,391.533020 116.481766,395.489197 
	C115.874115,395.746338 115.734924,395.850250 115.589119,395.860596 
	C102.964828,396.751984 102.965279,396.751251 98.472633,384.963959 
	C98.117897,384.033234 97.742172,383.110474 97.389496,382.178986 
	C94.061890,373.389954 94.062729,373.389648 83.778450,374.467041 
	C83.778450,381.447418 83.778450,388.509369 83.778450,395.780762 
	C79.119698,395.780762 75.003563,395.780762 70.502884,395.780762 
	C70.502884,377.131744 70.502884,358.423615 70.502884,339.615601 
	C81.115440,339.615601 91.864922,339.189209 102.558136,339.780426 
	C108.672791,340.118530 112.833260,344.177338 114.313629,350.389069 
	C115.990952,357.427185 115.244339,363.945099 109.906868,369.360382 
	C109.097305,370.181702 108.155121,370.872314 107.111855,371.761902 
	C108.606041,375.481415 110.086517,379.166779 111.720245,383.207886 
M96.760208,351.148376 
	C92.499878,351.148376 88.239548,351.148376 84.136902,351.148376 
	C84.136902,355.137268 84.136902,358.676941 84.136902,362.303528 
	C88.200188,362.303528 91.848007,362.333069 95.495110,362.294525 
	C98.617554,362.261536 101.084824,361.159485 101.660774,357.749298 
	C102.213722,354.475372 100.740509,352.325256 96.760208,351.148376 
z"/>
<path fill="#FAFAFA" opacity="1.000000" stroke="none" 
	d="
M238.656891,385.934509 
	C240.338058,385.535034 241.940964,385.522186 242.806015,384.716797 
	C244.155502,383.460449 245.801163,381.685852 245.839691,380.095001 
	C245.877563,378.531708 244.422363,376.119446 242.999939,375.492920 
	C239.389938,373.903015 235.418320,373.146912 231.616257,371.976532 
	C228.135040,370.904938 224.495911,370.115295 221.259155,368.524323 
	C211.963303,363.955139 209.712021,351.506622 216.954742,344.112518 
	C223.720795,337.205017 232.334656,336.904663 241.145233,338.789154 
	C249.658142,340.609924 255.327286,345.733429 257.735474,354.217499 
	C257.950867,354.976318 257.863373,355.821136 257.935577,356.914062 
	C254.434326,356.914062 251.084427,357.186462 247.813034,356.797974 
	C246.201965,356.606628 244.250946,355.553467 243.293839,354.265839 
	C240.203903,350.108948 235.384781,347.898438 230.725037,349.646118 
	C228.955170,350.309937 226.636368,352.164062 226.468506,353.685364 
	C226.306534,355.153412 228.263672,357.686310 229.870590,358.354156 
	C233.823700,359.997101 238.126022,360.785339 242.257874,362.018005 
	C244.953918,362.822327 247.671005,363.631561 250.249420,364.739380 
	C256.132172,367.266754 259.483887,371.855377 259.704041,378.239044 
	C259.923187,384.594482 257.619354,389.954010 252.046448,393.559937 
	C239.233826,401.850464 218.155945,396.403351 212.854965,383.375580 
	C212.112915,381.551941 211.718048,379.587036 210.870773,376.690186 
	C215.557281,376.690186 219.771149,376.603058 223.973999,376.778961 
	C224.646362,376.807129 225.546860,377.899536 225.870834,378.692413 
	C228.163986,384.304596 232.594955,386.143433 238.656891,385.934509 
z"/>
<path fill="#F8F8F8" opacity="1.000000" stroke="none" 
	d="
M345.644958,360.733490 
	C352.914948,351.685150 361.661377,350.380127 370.308044,356.532776 
	C373.641602,350.599518 379.057220,355.303345 383.805481,353.045166 
	C383.805481,358.544617 383.807159,363.122742 383.805115,367.700867 
	C383.801361,376.022400 383.943298,384.347321 383.755096,392.664703 
	C383.484741,404.616760 378.144928,410.439850 366.252075,411.317383 
	C362.198700,411.616486 357.914825,411.117401 353.974030,410.079987 
	C347.826294,408.461548 345.010315,404.764526 343.407501,397.388885 
	C348.599884,398.224976 353.795837,395.195618 358.499969,400.510834 
	C359.953735,402.153381 365.381561,402.189209 367.558014,400.767975 
	C369.945496,399.208984 370.678925,395.116943 371.509521,391.835846 
	C363.216064,396.408813 356.403229,396.632843 350.126709,392.170410 
	C343.534607,387.483704 340.229889,377.483856 342.500610,368.383636 
	C343.133942,365.845551 344.427612,363.472260 345.644958,360.733490 
M363.543182,384.696808 
	C371.435577,383.255920 375.145782,376.503754 372.015778,369.228485 
	C370.501343,365.708344 367.890717,363.681671 363.962311,363.641327 
	C360.072784,363.601379 357.349884,365.411987 355.726349,368.943604 
	C352.583069,375.781006 355.566528,382.417114 363.543182,384.696808 
z"/>
<path fill="#F7D700" opacity="1.000000" stroke="none" 
	d="
M132.525269,394.644165 
	C122.016792,388.617859 118.222305,377.472351 122.540306,366.077606 
	C126.333069,356.068909 136.295563,350.985840 147.764786,353.207642 
	C158.854599,355.355927 164.674850,363.689636 164.246704,377.388885 
	C154.556427,377.388885 144.830505,377.388885 135.104568,377.388885 
	C134.739349,377.821503 134.374130,378.254150 134.008926,378.686768 
	C135.514648,380.724091 136.635544,383.827667 138.618286,384.543213 
	C141.436707,385.560425 146.337082,386.165466 147.802750,384.585541 
	C152.488434,379.534576 157.907150,381.942902 163.088837,381.133789 
	C161.623184,393.927734 147.628616,400.113037 132.525269,394.644165 
M147.857101,368.704407 
	C149.020020,368.554443 150.182938,368.404480 151.626541,368.218353 
	C149.632172,363.144196 145.999161,361.995209 141.770340,362.471893 
	C138.450790,362.846100 135.500473,364.129333 134.814941,368.704315 
	C139.145660,368.704315 143.074921,368.704315 147.857101,368.704407 
z"/>
<path fill="#F7F7F7" opacity="1.000000" stroke="none" 
	d="
M391.987732,366.150024 
	C397.339020,354.983948 406.886383,350.562531 418.485199,353.556061 
	C429.197266,356.320740 434.560547,364.593719 433.717712,377.502075 
	C423.989014,377.502075 414.221100,377.502075 404.446350,377.502075 
	C404.694397,384.580719 412.501648,389.126495 417.305176,384.622253 
	C422.218536,380.015045 427.332642,381.724915 432.533264,381.247498 
	C431.948029,389.419128 424.297607,396.072693 414.730804,396.858063 
	C397.244751,398.293549 386.638947,384.216248 391.987732,366.150024 
M406.721069,364.085754 
	C405.801361,365.432739 404.881622,366.779755 403.814026,368.343292 
	C410.022400,368.343292 415.403351,368.343292 420.903625,368.343292 
	C418.345551,362.304169 414.575745,361.089081 406.721069,364.085754 
z"/>
<path fill="#F8F8F8" opacity="1.000000" stroke="none" 
	d="
M298.042847,353.660522 
	C300.463867,353.660583 302.436310,353.660583 304.630554,353.660583 
	C304.630554,367.840454 304.630554,381.592865 304.630554,396.057434 
	C300.203217,394.994446 295.159271,398.314423 291.681061,394.032532 
	C287.926147,394.967896 284.063416,396.706604 280.187164,396.737244 
	C271.600342,396.805176 266.461334,391.721558 266.171631,383.127136 
	C265.846588,373.485535 266.096893,363.824554 266.096893,353.916840 
	C270.174042,353.916840 274.107025,353.916840 278.742126,353.916840 
	C278.742126,359.029602 278.728302,364.106689 278.746796,369.183624 
	C278.760132,372.847656 278.830292,376.511444 278.849854,380.175476 
	C278.872681,384.450958 281.029724,386.737610 285.275269,386.733765 
	C289.473816,386.729950 291.865265,384.367157 291.939362,380.244843 
	C292.094818,371.594086 291.986542,362.938599 291.986542,353.660492 
	C294.055969,353.660492 295.825134,353.660492 298.042847,353.660522 
z"/>
<path fill="#FADA00" opacity="1.000000" stroke="none" 
	d="
M182.236496,394.011719 
	C177.305740,380.565155 172.516449,367.504852 167.562439,353.995422 
	C172.168594,353.995422 176.254333,353.995422 180.789291,353.995422 
	C182.944595,360.953979 185.175735,368.157379 187.406876,375.360779 
	C187.736877,375.407501 188.066895,375.454254 188.396896,375.500977 
	C190.064484,370.222076 192.084366,365.022308 193.293335,359.640411 
	C194.348953,354.941193 196.466095,352.815796 201.388626,353.623169 
	C203.463989,353.963562 205.641708,353.679871 208.653473,353.679871 
	C206.730331,358.870636 205.023956,363.448914 203.337509,368.034485 
	C200.469727,375.832245 197.628128,383.639618 194.749054,391.433197 
	C192.866776,396.528473 187.113098,397.893280 182.236496,394.011719 
z"/>
<path fill="#FDFDFD" opacity="1.000000" stroke="none" 
	d="
M325.416931,387.893921 
	C325.416931,390.835693 325.416931,393.295013 325.416931,395.875732 
	C321.157288,395.875732 317.361206,395.875732 313.222931,395.875732 
	C313.222931,382.020264 313.222931,368.181396 313.222931,353.608490 
	C317.509918,354.806335 322.529999,351.184998 325.939728,355.744568 
	C329.792206,354.554779 333.587982,353.382507 337.864014,352.061920 
	C337.864014,356.880768 337.864014,360.632477 337.864014,364.354034 
	C327.352539,365.910889 325.789764,367.682465 325.445435,378.445496 
	C325.349915,381.431396 325.421844,384.422638 325.416931,387.893921 
z"/>
<path fill="#040300" opacity="1.000000" stroke="none" 
	d="
M97.178062,351.227234 
	C100.740509,352.325256 102.213722,354.475372 101.660774,357.749298 
	C101.084824,361.159485 98.617554,362.261536 95.495110,362.294525 
	C91.848007,362.333069 88.200188,362.303528 84.136902,362.303528 
	C84.136902,358.676941 84.136902,355.137268 84.136902,351.148376 
	C88.239548,351.148376 92.499878,351.148376 97.178062,351.227234 
z"/>
<path fill="#060606" opacity="1.000000" stroke="none" 
	d="
M363.165161,384.649414 
	C355.566528,382.417114 352.583069,375.781006 355.726349,368.943604 
	C357.349884,365.411987 360.072784,363.601379 363.962311,363.641327 
	C367.890717,363.681671 370.501343,365.708344 372.015778,369.228485 
	C375.145782,376.503754 371.435577,383.255920 363.165161,384.649414 
z"/>
<path fill="#1C1900" opacity="1.000000" stroke="none" 
	d="
M147.430634,368.704346 
	C143.074921,368.704315 139.145660,368.704315 134.814941,368.704315 
	C135.500473,364.129333 138.450790,362.846100 141.770340,362.471893 
	C145.999161,361.995209 149.632172,363.144196 151.626541,368.218353 
	C150.182938,368.404480 149.020020,368.554443 147.430634,368.704346 
z"/>
<path fill="#1F1F1F" opacity="1.000000" stroke="none" 
	d="
M407.047729,363.891113 
	C414.575745,361.089081 418.345551,362.304169 420.903625,368.343292 
	C415.403351,368.343292 410.022400,368.343292 403.814026,368.343292 
	C404.881622,366.779755 405.801361,365.432739 407.047729,363.891113 
z"/>
</svg>