<svg width="45" viewBox="0 0 500 500" xmlns="http://www.w3.org/2000/svg">
<path fill="#fff" d="m280.000000,501.000000 
	C188.000015,501.000000 96.500015,500.975464 5.000191,501.095764 
	C1.576131,501.100250 0.903036,500.423828 0.905301,497.000000 
	C1.013778,333.000092 1.013756,169.000122 0.905337,5.000247 
	C0.903074,1.576947 1.575793,0.903021 4.999876,0.905286 
	C168.999756,1.013775 332.999725,1.013761 496.999634,0.905353 
	C500.422668,0.903091 501.096985,1.575428 501.094727,4.999756 
	C500.986206,168.999634 500.986237,332.999603 501.094604,496.999512 
	C501.096893,500.422272 500.425659,501.102448 497.000244,501.096405 
	C424.833679,500.968933 352.666809,501.000000 280.000000,501.000000z"/>
<path fill="#3056d3" d="m309.619995,26.414557 
	C324.357849,29.348835 338.018463,34.332363 351.255493,40.300205 
	C369.397736,48.479523 386.442322,58.574387 401.884003,71.283447 
	C415.661621,82.622925 428.024780,95.288078 438.888580,109.426231 
	C455.013458,130.411179 467.245941,153.485687 475.222565,178.703491 
	C477.069366,184.542191 478.819733,190.483063 480.053345,196.559387 
	C480.643036,199.463959 479.520264,200.013016 477.610260,200.711594 
	C465.346771,205.196960 453.071991,209.651581 440.807434,214.134048 
	C408.359253,225.993271 375.924530,237.889359 343.464752,249.716690 
	C320.634216,258.035431 297.763916,266.244843 274.924805,274.540192 
	C243.072525,286.109192 211.234344,297.717072 179.387146,309.300110 
	C159.505020,316.531372 139.639435,323.809326 119.709694,330.906982 
	C116.552536,332.031372 116.366287,333.027191 118.115997,335.768768 
	C131.875900,357.329102 149.323380,375.250885 171.130905,388.599884 
	C195.010315,403.217102 220.856567,411.766876 249.085556,413.170013 
	C266.278320,414.024597 282.993103,412.548096 299.683136,408.330170 
	C329.137421,400.886536 354.308258,386.302002 375.749420,364.914551 
	C394.649658,346.061676 408.063629,323.914612 416.120636,298.527374 
	C417.251312,294.964539 419.041016,291.550323 419.148956,287.660675 
	C419.212646,285.366333 420.783661,284.310150 422.845673,283.566589 
	C442.281982,276.557983 461.710541,269.527039 481.099945,262.390076 
	C484.897522,260.992249 486.042358,261.973846 485.681915,265.940613 
	C483.580780,289.065186 478.438721,311.553284 469.765442,333.007874 
	C460.389740,356.200104 447.384827,377.392426 431.053009,396.478058 
	C414.043457,416.355621 394.040436,432.618744 371.436066,445.608429 
	C353.480072,455.926971 334.358765,463.652710 314.239288,468.684784 
	C295.221100,473.441437 275.838898,475.911407 256.256683,475.601776 
	C235.612015,475.275421 215.080399,472.755402 195.323166,466.719055 
	C159.522842,455.781097 127.574234,437.994141 100.584023,411.593445 
	C86.767967,398.079224 74.626305,383.295990 64.650688,366.858795 
	C54.976799,350.918762 46.915119,334.105469 41.626865,316.120941 
	C40.093647,310.906738 39.206749,305.496033 37.552761,300.326050 
	C36.477768,296.965851 37.864983,295.939117 40.630142,294.944641 
	C63.027615,286.889526 85.395996,278.753326 107.762604,270.612610 
	C139.761978,258.965820 171.755035,247.301727 203.745834,235.631409 
	C243.345596,221.185303 282.931061,206.699982 322.540619,192.280701 
	C346.615051,183.516754 370.722992,174.844833 394.817383,166.135605 
	C395.592529,165.855423 396.395325,165.650299 397.165436,165.357986 
	C400.013855,164.276810 401.141174,163.580139 398.855560,159.959824 
	C382.922241,134.721954 361.686859,115.169975 335.429840,101.439621 
	C314.824341,90.664566 292.744049,84.131805 269.266235,82.853004 
	C253.359451,81.986588 237.515244,82.848831 222.102310,86.342560 
	C206.065292,89.977722 190.904480,96.235596 176.416733,104.473297 
	C153.566513,117.465858 135.170609,135.035355 120.641678,156.535843 
	C110.071556,172.177948 102.633049,189.536392 98.154747,207.985474 
	C97.513557,210.626968 96.286690,212.053802 93.921242,212.907410 
	C74.950920,219.753082 55.944942,226.503754 37.051228,233.555099 
	C32.528080,235.243179 31.677006,233.949814 31.961248,229.681015 
	C32.720062,218.285095 34.639637,207.066940 37.200737,195.981750 
	C41.004162,179.519440 46.671059,163.697357 54.170353,148.510559 
	C66.771439,122.992149 83.277435,100.492577 104.200630,81.105919 
	C116.733704,69.493233 130.302979,59.244656 145.078262,50.985596 
	C161.122101,42.017448 177.846909,34.372871 195.914276,29.638449 
	C210.890686,25.713995 225.891190,22.456011 241.257614,21.196068 
	C253.277664,20.210508 265.362793,20.616051 277.413147,21.559813 
	C288.132355,22.399319 298.701538,24.165375 309.619995,26.414557z"/>

</svg>